<?xml version="1.0" encoding="UTF-8"?>
<svg width="71px" height="53px" viewBox="0 0 71 53" version="1.1" xmlns="http://www.w3.org/2000/svg" xmlns:xlink="http://www.w3.org/1999/xlink">
    <title>icon4_night</title>
    <defs>
        <linearGradient x1="50%" y1="100%" x2="50%" y2="15.6622656%" id="linearGradient-1">
            <stop stop-color="#2762FF" offset="0%"></stop>
            <stop stop-color="#2762FF" stop-opacity="0" offset="100%"></stop>
        </linearGradient>
    </defs>
    <g id="页面-1" stroke="none" stroke-width="1" fill="none" fill-rule="evenodd">
        <g id="icon4_night">
            <polygon id="路径-41" fill="#F4F7FC" points="11.350315 31.5068871 0.400919473 44.8402204 70.4009195 44.8402204 59.2171193 31.5068871"></polygon>
            <polygon id="路径-41" fill="#060F1B" points="14.435579 35.1432507 8.40091947 42.415978 64.4009195 42.415978 58.4290458 35.1432507"></polygon>
            <rect id="矩形" fill="#2A3657" x="0.400919473" y="44.8402204" width="70" height="7.27272727"></rect>
            <g id="编组-20" transform="translate(17.794859, 0.991736)">
                <g id="编组-45">
                    <rect id="矩形" fill="#2A3657" x="0" y="0" width="36" height="24"></rect>
                    <rect id="矩形" fill="#F4F7FC" x="1.63636364" y="1.65517241" width="32.7272727" height="20.6896552"></rect>
                    <rect id="矩形" fill="#060F1B" x="3.27272727" y="3.31034483" width="29.4545455" height="17.3793103"></rect>
                </g>
                <g id="编组" transform="translate(10.909091, 5.454545)" fill="#FFFFFF" fill-rule="nonzero">
                    <path d="M6.54545455,6.54545455 L6.54545455,5.80909091 C6.54545455,5.80909091 5.89090909,6.54545455 5.89090909,6.54545455 L6.54545455,6.54545455 Z" id="路径"></path>
                    <path d="M11.4545455,8.18181818 L11.4545455,4.90909091 C12.3545455,4.90909091 13.0909091,5.64545455 13.0909091,6.54545455 C13.0909091,2.94545455 10.1454545,0 6.54545455,0 C2.94545455,0 0,2.94545455 0,6.54545455 C0,6.54545455 0,6.54545455 0,6.54545455 C0,5.64545455 0.736363636,4.90909091 1.63636364,4.90909091 L1.63636364,8.18181818 C0.736363636,8.18181818 0,7.44545455 0,6.54545455 C0,10.1454545 2.94545455,13.0909091 6.54545455,13.0909091 C10.1454545,13.0909091 13.0909091,10.1454545 13.0909091,6.54545455 C13.0909091,6.54545455 13.0909091,6.54545455 13.0909091,6.54545455 C13.0909091,7.44545455 12.3545455,8.18181818 11.4545455,8.18181818 Z M4.90909091,7.36363636 L4.90909091,8.18181818 L2.94545455,8.18181818 L2.94545455,7.36363636 C2.94545455,7.36363636 4.09090909,6.46363636 4.17272727,6.38181818 C4.74545455,5.56363636 3.6,5.15454545 3.10909091,5.80909091 L3.10909091,5.15454545 C3.35454545,4.99090909 3.68181818,4.90909091 4.00909091,4.90909091 C4.33636364,4.90909091 4.58181818,4.99090909 4.74545455,5.15454545 C4.90909091,5.31818182 4.99090909,5.56363636 4.99090909,5.80909091 C4.99090909,6.62727273 4.09090909,7.36363636 4.09090909,7.36363636 L4.90909091,7.36363636 Z M7.52727273,6.54545455 L7.52727273,7.36363636 L7.36363636,7.36363636 L7.36363636,8.18181818 L6.54545455,8.18181818 L6.54545455,7.36363636 L5.15454545,7.36363636 L5.15454545,6.62727273 L6.54545455,4.90909091 L7.36363636,4.90909091 L7.36363636,6.54545455 L7.52727273,6.54545455 Z M10.8,9.81818182 C9.98181818,10.9636364 8.83636364,11.7 7.44545455,11.9454545 C7.36363636,12.1090909 7.11818182,12.2727273 6.79090909,12.2727273 C6.38181818,12.2727273 5.97272727,12.0272727 5.97272727,11.6181818 C5.97272727,11.2090909 6.3,10.9636364 6.79090909,10.9636364 C7.03636364,10.9636364 7.2,11.0454545 7.36363636,11.1272727 C8.50909091,10.9636364 9.57272727,10.3090909 10.2272727,9.32727273 C10.3090909,9.16363636 10.5545455,9.16363636 10.7181818,9.24545455 C10.8818182,9.49090909 10.9636364,9.65454545 10.8,9.81818182 Z M9.81818182,4.33636364 C10.3090909,4.41818182 10.6363636,4.66363636 10.6363636,5.23636364 L10.6363636,6.54545455 L9.81818182,6.54545455 L9.81818182,5.31818182 C9.81818182,5.07272727 9.57272727,4.90909091 9.49090909,4.90909091 C9.24545455,4.90909091 9,4.99090909 9,5.31818182 L9,6.54545455 L8.18181818,6.54545455 L8.18181818,3.27272727 L9,3.27272727 L9,4.58181818 C9.16363636,4.33636364 9.65454545,4.25454545 9.81818182,4.33636364 Z M10.8,3.68181818 C10.7181818,3.68181818 10.6363636,3.76363636 10.6363636,3.76363636 C10.5545455,3.76363636 10.3909091,3.68181818 10.3090909,3.6 C9.49090909,2.37272727 8.1,1.55454545 6.62727273,1.55454545 C5.15454545,1.55454545 3.76363636,2.29090909 2.94545455,3.6 C2.78181818,3.68181818 2.53636364,3.76363636 2.37272727,3.68181818 C2.20909091,3.51818182 2.12727273,3.35454545 2.29090909,3.19090909 C3.19090909,1.71818182 4.82727273,0.818181818 6.54545455,0.818181818 C8.26363636,0.818181818 9.9,1.71818182 10.8818182,3.19090909 C10.9636364,3.35454545 10.9636364,3.51818182 10.8,3.68181818 Z" id="形状"></path>
                </g>
            </g>
            <polygon id="路径-42" fill="url(#linearGradient-1)" points="8.40091947 42.415978 0.400919473 3.62809917 70.4009195 3.62809917 64.4009195 42.415978"></polygon>
        </g>
    </g>
</svg>