<?xml version="1.0" encoding="UTF-8"?>
<svg width="121px" height="49px" viewBox="0 0 121 49" version="1.1" xmlns="http://www.w3.org/2000/svg" xmlns:xlink="http://www.w3.org/1999/xlink">
    <title>icon2_night</title>
    <defs>
        <linearGradient x1="4.3219454%" y1="59.4694835%" x2="96.1643327%" y2="59.4694835%" id="linearGradient-1">
            <stop stop-color="#2762FF" offset="0%"></stop>
            <stop stop-color="#2762FF" stop-opacity="0" offset="100%"></stop>
        </linearGradient>
        <linearGradient x1="4.3219454%" y1="59.4694835%" x2="100%" y2="59.4694835%" id="linearGradient-2">
            <stop stop-color="#2762FF" offset="0%"></stop>
            <stop stop-color="#2762FF" stop-opacity="0" offset="100%"></stop>
        </linearGradient>
    </defs>
    <g id="页面-1" stroke="none" stroke-width="1" fill="none" fill-rule="evenodd">
        <g id="icon2_night" transform="translate(0.333333, 0.000000)">
            <g id="编组-41">
                <rect id="矩形" fill="url(#linearGradient-1)" x="25.1559252" y="0" width="44.5945946" height="14.8648649"></rect>
                <circle id="椭圆形" fill="#21262B" cx="22.8690229" cy="22.8690229" r="22.8690229"></circle>
                <circle id="椭圆形" fill="#353C44" cx="22.8690229" cy="22.8690229" r="18.2952183"></circle>
                <circle id="椭圆形" fill="#FFFFFF" cx="22.8690229" cy="22.8690229" r="13.7214137"></circle>
                <path d="M26.459214,22.4512433 C27.3014523,22.007888 27.8374415,21.2196661 27.713004,19.9092978 C27.5502665,18.1161476 26.1197066,17.5151479 24.2246857,17.3476859 L24.2246857,14.8648649 L22.7507535,14.8648649 L22.7507535,17.2787126 C22.3679041,17.2787126 21.9754873,17.2885614 21.5831008,17.2984103 L21.5831008,14.8648649 L20.1091686,14.8648649 L20.1091686,17.3476859 C19.5672568,17.3645384 18.9361096,17.3563154 17.1517672,17.3476859 L17.1517672,18.9634628 C18.3154714,18.9422642 18.9260562,18.8652868 19.0659534,19.6334045 L19.0659534,26.4315923 C18.9771129,27.0410339 18.5033273,26.9532696 17.4484489,26.9340721 L17.1517672,28.7370712 C19.839215,28.7370712 20.109199,28.7469201 20.109199,28.7469201 L20.109199,30.8731809 L21.5831312,30.8731809 L21.5831312,28.7764667 C21.9850851,28.7863155 22.3775019,28.7863155 22.7507839,28.7863155 L22.7507839,30.8731809 L24.2247161,30.8731809 L24.2247161,28.7469201 C26.6939959,28.6089734 28.3446979,27.9685782 28.5648401,25.5744283 C28.7370844,23.6532428 27.856546,22.7960475 26.459214,22.4512433 Z M21.2621702,19.3649546 C22.0934835,19.3649546 24.6925237,19.0653797 24.6925237,21.073873 C24.6925237,22.9936243 22.0935138,22.7716635 21.2621702,22.7716635 L21.2621702,19.3649546 L21.2621702,19.3649546 Z M21.3219879,27.3376451 L21.3219879,23.9300746 C22.4479257,23.9300746 25.8957925,23.6377174 25.8957925,25.6338918 C25.8957925,27.5594564 22.4479257,27.3376451 21.3219879,27.3376451 Z" id="Shape" fill="#21262B" fill-rule="nonzero" transform="translate(22.869023, 22.869023) rotate(-360.000000) translate(-22.869023, -22.869023) "></path>
                <rect id="矩形" fill="url(#linearGradient-2)" x="25.1559252" y="0" width="44.5945946" height="14.8648649"></rect>
                <circle id="椭圆形" fill="#F4F7FC" cx="22.8690229" cy="22.8690229" r="22.8690229"></circle>
                <circle id="椭圆形" fill="#2A3657" cx="22.8690229" cy="22.8690229" r="18.2952183"></circle>
                <circle id="椭圆形" fill="#060F1B" cx="22.8690229" cy="22.8690229" r="13.7214137"></circle>
                <path d="M26.459214,22.4512433 C27.3014523,22.007888 27.8374415,21.2196661 27.713004,19.9092978 C27.5502665,18.1161476 26.1197066,17.5151479 24.2246857,17.3476859 L24.2246857,14.8648649 L22.7507535,14.8648649 L22.7507535,17.2787126 C22.3679041,17.2787126 21.9754873,17.2885614 21.5831008,17.2984103 L21.5831008,14.8648649 L20.1091686,14.8648649 L20.1091686,17.3476859 C19.5672568,17.3645384 18.9361096,17.3563154 17.1517672,17.3476859 L17.1517672,18.9634628 C18.3154714,18.9422642 18.9260562,18.8652868 19.0659534,19.6334045 L19.0659534,26.4315923 C18.9771129,27.0410339 18.5033273,26.9532696 17.4484489,26.9340721 L17.1517672,28.7370712 C19.839215,28.7370712 20.109199,28.7469201 20.109199,28.7469201 L20.109199,30.8731809 L21.5831312,30.8731809 L21.5831312,28.7764667 C21.9850851,28.7863155 22.3775019,28.7863155 22.7507839,28.7863155 L22.7507839,30.8731809 L24.2247161,30.8731809 L24.2247161,28.7469201 C26.6939959,28.6089734 28.3446979,27.9685782 28.5648401,25.5744283 C28.7370844,23.6532428 27.856546,22.7960475 26.459214,22.4512433 Z M21.2621702,19.3649546 C22.0934835,19.3649546 24.6925237,19.0653797 24.6925237,21.073873 C24.6925237,22.9936243 22.0935138,22.7716635 21.2621702,22.7716635 L21.2621702,19.3649546 L21.2621702,19.3649546 Z M21.3219879,27.3376451 L21.3219879,23.9300746 C22.4479257,23.9300746 25.8957925,23.6377174 25.8957925,25.6338918 C25.8957925,27.5594564 22.4479257,27.3376451 21.3219879,27.3376451 Z" id="Shape" fill="#FFFFFF" fill-rule="nonzero" transform="translate(22.869023, 22.869023) rotate(-360.000000) translate(-22.869023, -22.869023) "></path>
            </g>
            <g id="编组-42" transform="translate(50.311850, 3.000000)">
                <rect id="矩形备份-24" fill="url(#linearGradient-2)" transform="translate(22.297297, 38.305613) scale(-1, 1) translate(-22.297297, -38.305613) " x="0" y="30.8731809" width="44.5945946" height="14.8648649"></rect>
                <circle id="椭圆形备份-11" fill="#F4F7FC" cx="45.7380457" cy="22.8690229" r="22.8690229"></circle>
                <circle id="椭圆形备份-12" fill="#2A3657" cx="45.7380457" cy="22.8690229" r="18.2952183"></circle>
                <circle id="椭圆形备份-13" fill="#060F1B" cx="45.7380457" cy="22.8690229" r="13.7214137"></circle>
                <g id="编组" transform="translate(40.020790, 13.721414)" fill="#FFFFFF" fill-rule="nonzero">
                    <path d="M5.33298635,12.9967217 L0.00700643518,9.85060378 L5.33226309,17.3578921 L10.6625825,9.85060378 L5.33081661,12.9967217 L5.33298635,12.9967217 Z M5.41398983,0 L0.086563452,8.84022981 L5.4132666,11.9892407 L10.7399697,8.84312278 L5.41398983,0 Z" id="形状"></path>
                </g>
            </g>
        </g>
    </g>
</svg>