<?xml version="1.0" encoding="UTF-8"?>
<svg width="64px" height="60px" viewBox="0 0 64 60" version="1.1" xmlns="http://www.w3.org/2000/svg" xmlns:xlink="http://www.w3.org/1999/xlink">
    <title>icon3_night</title>
    <defs>
        <linearGradient x1="50%" y1="100%" x2="50%" y2="0%" id="linearGradient-1">
            <stop stop-color="#2762FF" offset="0%"></stop>
            <stop stop-color="#2762FF" stop-opacity="0" offset="100%"></stop>
        </linearGradient>
        <rect id="path-2" x="0" y="0" width="33.6842105" height="32.5614035"></rect>
    </defs>
    <g id="页面-1" stroke="none" stroke-width="1" fill="none" fill-rule="evenodd">
        <g id="icon3_night">
            <polygon id="矩形" fill="url(#linearGradient-1)" points="0 -8.36498816e-12 47.1578947 -8.36498816e-12 47.1578947 41.7894737 0 41.7894737"></polygon>
            <rect id="矩形" fill="#2A3657" x="16.8421053" y="13.7192982" width="47.1578947" height="46.0350877"></rect>
            <g id="编组" transform="translate(23.578947, 20.456140)">
                <mask id="mask-3" fill="white">
                    <use xlink:href="#path-2"></use>
                </mask>
                <use id="蒙版" fill="#060F1B" xlink:href="#path-2"></use>
                <g mask="url(#mask-3)" fill="#FFFFFF" fill-rule="nonzero" id="形状">
                    <g transform="translate(12.350877, 10.105263)">
                        <path d="M26.2105263,4.58479532 C19.4697856,4.40155945 15.1111111,1.22807018 13.8167641,0.148148148 C13.6998051,0.0506822612 13.5555556,0 13.4152047,0 C13.2709552,0 13.1306043,0.0506822612 13.0136452,0.148148148 C11.7192982,1.22807018 7.36062378,4.40155945 0.619883041,4.58479532 C0.280701754,4.59259259 0.00389863548,4.86159844 0.00389863548,5.20077973 L0.00389863548,17.8596491 C0.00389863548,23.5243665 8.50682261,30.1988304 13.4152047,30.1988304 C18.1910331,30.1988304 26.8265107,23.5243665 26.8265107,17.8596491 L26.8265107,5.20077973 C26.8265107,4.86159844 26.5497076,4.59259259 26.2105263,4.58479532 Z M2.75243665,17.8596491 L2.75243665,14.9278752 L13.3762183,14.9278752 L13.3918129,3.29824561 C13.3996101,3.29434698 13.4074074,3.28654971 13.4152047,3.28265107 C15.5048733,4.72124756 19.1189084,6.64327485 24.0779727,7.18908382 L24.0779727,14.9239766 L13.3762183,14.9239766 L13.411306,27.4463938 C9.73879142,27.4463938 2.75243665,21.7153996 2.75243665,17.8596491 Z"></path>
                    </g>
                </g>
            </g>
            <polygon id="路径-43" fill="#101421" points="16.8421053 13.7192982 16.8421053 41.8345098 0.202333439 41.8345098"></polygon>
        </g>
    </g>
</svg>